<?xml version="1.0" encoding="iso-8859-1"?>
<!-- Generator: Adobe Illustrator 19.0.0, SVG Export Plug-In . SVG Version: 6.00 Build 0)  -->
<svg version="1.1" id="Capa_1" xmlns="http://www.w3.org/2000/svg" xmlns:xlink="http://www.w3.org/1999/xlink" x="0px" y="0px"
	 viewBox="0 0 512 512" style="enable-background:new 0 0 512 512;" xml:space="preserve">
<g>
	<g>
		<g>
			<path d="M204.058,256c0-6.763,0.401-13.432,1.156-19.996H39.992v39.993h165.221C204.459,269.432,204.058,262.763,204.058,256z"/>
			<path d="M267.172,122.025H79.985v39.992H231.69C241.412,146.931,253.401,133.44,267.172,122.025z"/>
			<path d="M378.024,122.025c-73.874,0-133.974,60.101-133.974,133.975s60.101,133.975,133.975,133.975S512,329.874,512,256
				S451.899,122.025,378.024,122.025z M378.025,349.982h-0.001c-51.821,0-93.981-42.16-93.981-93.982s42.16-93.982,93.982-93.982
				c51.822,0,93.982,42.16,93.982,93.982S429.847,349.982,378.025,349.982z"/>
			<path d="M231.69,349.982H0v39.993h267.172C253.401,378.56,241.412,365.068,231.69,349.982z"/>
		</g>
	</g>
</g>
<g>
</g>
<g>
</g>
<g>
</g>
<g>
</g>
<g>
</g>
<g>
</g>
<g>
</g>
<g>
</g>
<g>
</g>
<g>
</g>
<g>
</g>
<g>
</g>
<g>
</g>
<g>
</g>
<g>
</g>
</svg>
