<?xml version="1.0" encoding="iso-8859-1"?>
<!-- Generator: Adobe Illustrator 19.0.0, SVG Export Plug-In . SVG Version: 6.00 Build 0)  -->
<svg version="1.1" id="Capa_1" xmlns="http://www.w3.org/2000/svg" xmlns:xlink="http://www.w3.org/1999/xlink" x="0px" y="0px"
	 viewBox="0 0 512 512" style="enable-background:new 0 0 512 512;" xml:space="preserve">
<g>
	<g>
		<path d="M467,422c-19.555,0-36.228,12.542-42.42,30H298.42c-4.527-12.764-14.656-22.893-27.42-27.42V360c11.481,0,92.078,0,105,0
			c8.284,0,15-6.716,15-15V210h45c13.303,0,20.05-16.164,10.606-25.606l-180-180c-5.857-5.858-15.355-5.858-21.213,0l-180,180
			C55.986,193.801,62.646,210,76,210h45v135c0,8.284,6.716,15,15,15c12.924,0,93.52,0,105,0v64.58
			c-12.764,4.527-22.893,14.656-27.42,27.42H87.42c-6.192-17.458-22.865-30-42.42-30c-24.813,0-45,20.187-45,45s20.187,45,45,45
			c19.555,0,36.228-12.542,42.42-30h126.16c6.192,17.458,22.865,30,42.42,30s36.228-12.542,42.42-30h126.16
			c6.192,17.458,22.865,30,42.42,30c24.813,0,45-20.187,45-45S491.813,422,467,422z M45,482c-8.271,0-15-6.729-15-15s6.729-15,15-15
			s15,6.729,15,15S53.271,482,45,482z M271,330h-30v-60h30V330z M226,240c-8.284,0-15,6.716-15,15v75h-60V195
			c0-8.284-6.716-15-15-15h-23.787L256,36.214L399.787,180H376c-8.284,0-15,6.716-15,15v135h-60v-75c0-8.284-6.716-15-15-15H226z
			 M256,482c-8.271,0-15-6.729-15-15s6.729-15,15-15s15,6.729,15,15S264.271,482,256,482z M467,482c-8.271,0-15-6.729-15-15
			s6.729-15,15-15s15,6.729,15,15S475.271,482,467,482z"/>
	</g>
</g>
<g>
</g>
<g>
</g>
<g>
</g>
<g>
</g>
<g>
</g>
<g>
</g>
<g>
</g>
<g>
</g>
<g>
</g>
<g>
</g>
<g>
</g>
<g>
</g>
<g>
</g>
<g>
</g>
<g>
</g>
</svg>
